{"title":"WWE Friday Night Smackdown 2013 11 01 HDTV x264-RatedGTS","uid":9131029,"size":470400427,"categoryP":"video","categoryS":"hd___tv_shows","magnet":"?xt=urn:btih:aae2fe3fd8a809424b9ae1f39b3589f69b11752a&amp;dn=WWE+Friday+Night+Smackdown+2013+11+01+HDTV+x264-RatedGTS&amp;tr=udp%3A%2F%2Ftracker.openbittorrent.com%3A80&amp;tr=udp%3A%2F%2Fopen.demonii.com%3A1337&amp;tr=udp%3A%2F%2Ftracker.coppersurfer.tk%3A6969&amp;tr=udp%3A%2F%2Fexodus.desync.com%3A6969","seeders":0,"leechers":1,"uploader":"RDS31","files":1,"time":1383317939,"description":"General\nRelease Date.USA : 11/01/13\nFormat : mp4\nFile size : 449 MiB\nDuration : 01:18:00\nOverall bit rate : 800 Kbps\nTagging application : Yet Another Metadata Injector for MP4 - Version 1.9\n\n\n\n\nVideo\nFormat : AVC\nFormat/Info : Advanced Video Codec\nFormat profile : &lt;a class=&quot;__cf_email__&quot; href=&quot;/cdn-cgi/l/email-protection&quot; data-cfemail=&quot;7d35141a153d314e534d&quot;&gt;[email&amp;#160;protected]&lt;/a&gt;&lt;script cf-hash='f9e31' type=&quot;text/javascript&quot;&gt;\n/* &lt;![CDATA[ */!function(){try{var t=&quot;currentScript&quot;in document?document.currentScript:function(){for(var t=document.getElementsByTagName(&quot;script&quot;),e=t.length;e--;)if(t[e].getAttribute(&quot;cf-hash&quot;))return t[e]}();if(t&amp;&amp;t.previousSibling){var e,r,n,i,c=t.previousSibling,a=c.getAttribute(&quot;data-cfemail&quot;);if(a){for(e=&quot;&quot;,r=parseInt(a.substr(0,2),16),n=2;a.length-n;n+=2)i=parseInt(a.substr(n,2),16)^r,e+=String.fromCharCode(i);e=document.createTextNode(e),c.parentNode.replaceChild(e,c)}}}catch(u){}}();/* ]]&gt; */&lt;/script&gt;\nFormat settings, CABAC : Yes\nFormat settings, ReFrames : 4 frames\nCodec ID : 7\nBit rate : 700 Kbps\nWidth : 704 pixels\nHeight : 400 pixels\nDisplay aspect ratio : 16:9\nFrame rate mode : Constant\nFrame rate : 29.970 fps\nColor space : YUV\nChroma subsampling : 4:2:0\nBit depth : 8 bits\nScan type : Progressive\nBits/(Pixel*Frame) : 0.083\nStream size : 391 MiB (87%)\nWriting library : x264 core 128 r2 198a7ea\n\n\n\n\nAudio\nFormat : AAC\nFormat/Info : Advanced Audio Codec\nFormat profile : LC\nCodec ID : 10\nDuration : 1h 18mn\nBit rate : 94.4 Kbps\nChannel(s) : 2 channels\nChannel positions : Front: L R\nSampling rate : 44.1 KHz\nCompression mode : Lossy\nDelay relative to video : 65ms\nStream size : 56.3 MiB (13%)","torrent":{"xt":"urn:btih:aae2fe3fd8a809424b9ae1f39b3589f69b11752a","amp;dn":"WWE+Friday+Night+Smackdown+2013+11+01+HDTV+x264-RatedGTS","amp;tr":["udp%3A%2F%2Ftracker.openbittorrent.com%3A80","udp%3A%2F%2Fopen.demonii.com%3A1337","udp%3A%2F%2Ftracker.coppersurfer.tk%3A6969","udp%3A%2F%2Fexodus.desync.com%3A6969"],"infoHash":"aae2fe3fd8a809424b9ae1f39b3589f69b11752a","infoHashBuffer":{"type":"Buffer","data":[170,226,254,63,216,168,9,66,75,154,225,243,155,53,137,246,155,17,117,42]},"announce":[],"urlList":[]}}